<?xml version="1.0" standalone="no"?><!DOCTYPE svg PUBLIC "-//W3C//DTD SVG 1.1//EN" "http://www.w3.org/Graphics/SVG/1.1/DTD/svg11.dtd"><svg t="1692952782800" class="icon" viewBox="0 0 1024 1024" version="1.1" xmlns="http://www.w3.org/2000/svg" p-id="32318" xmlns:xlink="http://www.w3.org/1999/xlink" width="200" height="200"><path d="M668.9 711.7H355.1c-68.8 0-125-56.3-125-125V426.4H794v160.3c0 68.7-56.3 125-125.1 125z" fill="#F9C933" p-id="32319"></path><path d="M685.6 721.5H338.4c-65.2 0-118.2-53-118.2-118.2v-177c0-5.4 4.4-9.8 9.8-9.8h564c5.4 0 9.8 4.4 9.8 9.8v177c0 65.2-53 118.2-118.2 118.2zM239.9 436.2v167.2c0 54.3 44.2 98.5 98.5 98.5h347.3c54.3 0 98.5-44.2 98.5-98.5V436.2H239.9z" fill="#603813" p-id="32320"></path><path d="M569.3 298.8H454.7c-1.1 0-2-0.9-2-2v-60.5c0-1.1 0.9-2 2-2h114.6c1.1 0 2 0.9 2 2v60.5c0 1.1-0.9 2-2 2z" fill="#54BCE8" p-id="32321"></path><path d="M551.6 308.6h-79.2c-16.3 0-29.5-13.3-29.5-29.5V254c0-16.3 13.3-29.5 29.5-29.5h79.2c16.3 0 29.5 13.3 29.5 29.5v25.1c0 16.3-13.2 29.5-29.5 29.5z m-79.2-64.4c-5.4 0-9.8 4.4-9.8 9.8v25.1c0 5.4 4.4 9.8 9.8 9.8h79.2c5.4 0 9.8-4.4 9.8-9.8V254c0-5.4-4.4-9.8-9.8-9.8h-79.2zM851.9 436.2H172.1c-5.4 0-9.8-4.4-9.8-9.8s4.4-9.8 9.8-9.8h679.8c5.4 0 9.8 4.4 9.8 9.8 0.1 5.4-4.3 9.8-9.8 9.8z" fill="#603813" p-id="32322"></path><path d="M794 425.3c-5.4 0-9.8-4.4-9.8-9.8 0-93-170.5-106.9-272.1-106.9-101.6 0-272.1 13.9-272.1 106.9 0 5.4-4.4 9.8-9.8 9.8s-9.8-4.4-9.8-9.8c0-82.8 100.9-126.6 291.8-126.6S804 332.7 804 415.5c-0.2 5.4-4.6 9.8-10 9.8z" fill="#603813" p-id="32323"></path><path d="M698.9 799.5H325.1c-5.4 0-9.8-4.4-9.8-9.8s4.4-9.8 9.8-9.8H699c5.4 0 9.8 4.4 9.8 9.8s-4.4 9.8-9.9 9.8z" fill="#603813" p-id="32324"></path></svg>