<?xml version="1.0" standalone="no"?><!DOCTYPE svg PUBLIC "-//W3C//DTD SVG 1.1//EN" "http://www.w3.org/Graphics/SVG/1.1/DTD/svg11.dtd"><svg t="1692952280429" class="icon" viewBox="0 0 1024 1024" version="1.1" xmlns="http://www.w3.org/2000/svg" p-id="10267" xmlns:xlink="http://www.w3.org/1999/xlink" width="200" height="200"><path d="M512 0a512 512 0 1 0 512 512 512 512 0 0 0-512-512z m49.737143 804.571429a24.868571 24.868571 0 0 1-25.6 25.6H459.337143a25.6 25.6 0 0 1-25.6-25.6V727.771429a25.6 25.6 0 0 1 7.314286-18.285715 27.062857 27.062857 0 0 1 18.285714-7.314285h76.8a25.6 25.6 0 0 1 25.6 25.6z m126.537143-352.548572a345.965714 345.965714 0 0 1-62.902857 56.32l-32.182858 21.942857a98.011429 98.011429 0 0 0-35.108571 43.154286 141.897143 141.897143 0 0 0 0 24.137143c0 5.12-5.12 15.36-15.36 15.36H459.337143a14.628571 14.628571 0 0 1-15.36-16.091429 146.285714 146.285714 0 0 1 18.285714-80.457143 521.508571 521.508571 0 0 1 92.16-73.142857 117.76 117.76 0 0 0 23.405714-23.405714 87.04 87.04 0 0 0 19.748572-49.737143 92.891429 92.891429 0 0 0-18.285714-56.32 73.142857 73.142857 0 0 0-65.828572-24.868571 73.142857 73.142857 0 0 0-66.56 30.72 120.685714 120.685714 0 0 0-19.017143 45.348571c0 5.12 0 16.822857-16.091428 16.822857H329.142857c-16.822857 0-21.211429-10.971429-20.48-16.822857a177.005714 177.005714 0 0 1 80.457143-146.285714 212.114286 212.114286 0 0 1 117.76-31.451429 255.268571 255.268571 0 0 1 152.868571 43.885715 160.914286 160.914286 0 0 1 30.72 219.428571z m0 0" fill="#FF9910" p-id="10268"></path></svg>