<svg width="64" height="64" viewBox="0 0 64 64" xmlns="http://www.w3.org/2000/svg"><g fill="none" fill-rule="evenodd"><path d="M64 0H0v64h64z"/><g transform="matrix(-1 0 0 1 50.11 9.498)"><path d="M33.852-.75H2.344C1.459-.75.66-.381.09.27-.42.854-.75 1.677-.75 2.683c0 1.245.748 2.341 1.874 3.117.26 3.868 2.387 7.186 6.5 11.19l4.532 4.351c1.288 1.26 1.385 1.334 1.369 2.172-.011.368-.672.732-4.165 4.061l-1.366 1.302c-4.435 4.232-6.687 7.69-6.883 11.852a2.946 2.946 0 00-1.23 1.015c-.387.55-.631 1.277-.631 2.163 0 .855.346 1.628.906 2.188.56.56 1.333.906 2.188.906h31.508c.885 0 1.684-.369 2.253-1.02.51-.584.84-1.407.84-2.413 0-1.249-.752-2.348-1.882-3.119-.262-3.853-2.385-7.162-6.499-11.167l-4.547-4.368c-1.243-1.218-1.363-1.292-1.341-2.069-.039-.506.358-.558 4.335-4.369l1.186-1.137c4.436-4.253 6.681-7.695 6.878-11.812a2.949 2.949 0 001.237-1.014c.388-.552.634-1.28.634-2.168 0-.855-.347-1.628-.906-2.188a3.084 3.084 0 00-2.188-.906z" stroke="#FFF" stroke-width="1.5" fill-rule="nonzero"/><path d="M32.84 4.277c-5.922.037-21.892.037-29.485 0-.234 0-.476-.002-.725-.004-.02.25-.03.503-.029.757.023 5.196 4.429 9.399 8.122 12.812 2.218 2.05 4.279 3.752 4.279 5.283 0 1.526-2.052 3.212-4.26 5.245-3.697 3.403-8.118 7.604-8.14 12.85-.002.254.008.506.027.756.251 0 .494-.002.726-.003a3962.502 3962.502 0 0130.21.004c.02-.25.03-.503.03-.757-.023-5.17-4.42-9.367-8.11-12.781-2.224-2.057-4.292-3.766-4.291-5.301.001-1.535 2.067-3.248 4.29-5.307 3.69-3.42 8.088-7.627 8.11-12.8a9.211 9.211 0 00-.028-.758l-.726.004z" stroke="#000" stroke-width="1.5" fill="#FFFCF8"/><path d="M18.098 28.822a1.34 1.34 0 110 2.682 1.34 1.34 0 010-2.682zm0-3.016a.838.838 0 110 1.676.838.838 0 010-1.676z" fill="#FFE5B6"/><path d="M7.494 10.494c1.78 3.204 8.26 8.573 9.146 9.272.886.7 2.23.648 2.983 0 .751-.647 5.702-4.695 8.28-7.556-5.392 0-5.064.995-7.432.995-2.367 0-6.261-2.208-12.977-2.711z" fill="#FFC55D"/><path d="M5.027 41.223h26.178s.243-4.734-5.325-9.173c-4.472-.512-6.208 4.2-9.361 4.2-3.154 0-2.34-2.01-7.917-2.218-3.36 2.753-3.575 7.19-3.575 7.19z" fill="#E3AF51"/><rect stroke="#000" stroke-width="1.5" fill="#FFE5B6" x=".75" y=".75" width="34.696" height="3.527" rx="1.764"/><rect stroke="#000" stroke-width="1.5" fill="#FFE5B6" x=".75" y="41.973" width="34.696" height="3.527" rx="1.764"/></g></g></svg>