<?xml version="1.0" standalone="no"?><!DOCTYPE svg PUBLIC "-//W3C//DTD SVG 1.1//EN" "http://www.w3.org/Graphics/SVG/1.1/DTD/svg11.dtd"><svg t="1692952537702" class="icon" viewBox="0 0 1024 1024" version="1.1" xmlns="http://www.w3.org/2000/svg" p-id="9518" xmlns:xlink="http://www.w3.org/1999/xlink" width="200" height="200"><path d="M881.2 442c0-172.7-140-312.8-312.8-312.8S255.7 269.3 255.7 442c0 137.5 88.7 254.2 212 296.2L568.5 861l97.8-74L821 679l-27-20.3c54-56.2 87.2-132.6 87.2-216.7z" fill="#F9BA1C" p-id="9519"></path><path d="M511.8 129.3c92.6 0 177.2 36.7 237.8 99C862.9 341.6 880.5 523.5 789.5 656c-36.7 54.3-89.4 95.8-150 121.3l-107 108.6c-5.6 5.6-13.2 8.4-20.8 8.4-7.6 0-15.2-2.8-20.7-8.4L384.1 777.3c-62.3-25.5-113.3-67-150-121.3-91-132.5-75-314.5 39.9-427.8 60.6-62.2 145.2-98.9 237.8-98.9m0-53c-52.7 0-103.7 10.2-151.4 30.3-46.9 19.7-88.6 48.1-124 84.3-32.5 32.1-58.8 69.5-78 111.1-18.7 40.4-30.2 83.5-34.3 128.1-4.1 44.5-0.6 89 10.4 132.1 11.3 44.4 30.1 86 55.9 123.6 21.2 31.3 46.7 59.2 75.9 82.8 26.4 21.4 55.8 39.3 87.5 53.3L453.3 923l0.3 0.3c7.9 7.9 17.2 14 27.6 18.1 9.7 3.8 20 5.8 30.5 5.8s20.8-1.9 30.5-5.8c10.4-4.1 19.7-10.2 27.6-18.1l0.1-0.1 0.1-0.1 100-101.4c67.2-30.4 123.5-77.2 163.2-135.9 25.8-37.6 44.6-79.3 55.7-123.7 10.8-43.1 14.1-87.5 9.9-132.1-4.2-44.5-15.8-87.5-34.4-127.9-19.1-41.5-45.1-78.9-77.2-111.1-35.4-36.3-77.2-64.7-124.1-84.4-47.7-20.1-98.6-30.3-151.3-30.3z m0 0" fill="#333333" p-id="9520"></path><path d="M513.7 734.9c-19.3 0-34.9-15.6-34.9-34.9 0-19.3 15.6-34.9 34.9-34.9 19.3 0 34.9 15.6 34.9 34.9 0 19.3-15.7 34.9-34.9 34.9z m0 0M666.3 387.4c-5.5 31.3-18.4 60.7-42.3 84.6-9.2 11-22.1 20.2-34.9 27.6-11 5.5-22.1 11-29.4 20.2-7.4 9.2-11 23.9-11 47.8 0 20.2-16.6 36.8-36.8 36.8-20.2 0-34.9-14.7-34.9-34.9 0-42.3 11-69.9 25.7-90.1 14.7-20.2 33.1-31.3 51.5-40.5 7.4-3.7 14.7-9.2 20.2-14.7 12.9-11 20.2-27.6 22.1-42.3 1.8-16.5-1.8-33.1-9.2-47.8-5.5-7.4-9.2-14.7-16.5-22.1-16.6-16.5-36.8-23.9-57-23.9-11 0-22.1 3.7-33.1 7.4-9.2 3.7-20.2 9.2-27.6 18.4-14.7 14.7-23.9 33.1-23.9 57 0 18.4-14.7 33.1-34.9 33.1s-34.9-14.7-34.9-34.9c0-44.1 18.4-80.9 44.1-108.5 14.7-12.9 33.1-25.7 51.5-33.1 18.4-9.2 38.6-12.9 60.7-12.9 36.8 0 75.4 12.9 106.6 44.1 11 11 20.2 23.9 27.6 36.8 14.5 29.4 20 62.5 16.4 91.9z m0 0" fill="#333333" p-id="9521"></path></svg>